<?xml version="1.0" encoding="UTF-8" standalone="no"?>
<svg
   xmlns:dc="http://purl.org/dc/elements/1.1/"
   xmlns:cc="http://creativecommons.org/ns#"
   xmlns:rdf="http://www.w3.org/1999/02/22-rdf-syntax-ns#"
   xmlns:svg="http://www.w3.org/2000/svg"
   xmlns="http://www.w3.org/2000/svg"
   xmlns:xlink="http://www.w3.org/1999/xlink"
   id="SVGRoot"
   version="1.1"
   viewBox="0 0 42 42"
   height="42px"
   width="42px">
  <defs
     id="defs1654">
    <clipPath
       id="clipPath546"
       clipPathUnits="userSpaceOnUse">
      <path
         id="path544"
         d="m 356.589,609.599 c -16.685,0 -30.212,-13.53 -30.212,-30.211 v 0 -86.65 c 0,-16.687 13.527,-30.206 30.212,-30.206 v 0 h 86.647 c 16.686,0 30.206,13.519 30.206,30.206 v 0 86.65 c 0,16.681 -13.52,30.211 -30.206,30.211 v 0 z" />
    </clipPath>
    <linearGradient
       id="linearGradient562"
       spreadMethod="pad"
       gradientTransform="matrix(147.0649,0,0,-147.0649,326.37732,536.06555)"
       gradientUnits="userSpaceOnUse"
       y2="0"
       x2="1"
       y1="0"
       x1="0">
      <stop
         id="stop552"
         offset="0"
         style="stop-opacity:1;stop-color:#bd7521" />
      <stop
         id="stop554"
         offset="0.00577951"
         style="stop-opacity:1;stop-color:#bd7521" />
      <stop
         id="stop556"
         offset="0.527665"
         style="stop-opacity:1;stop-color:#f1b84c" />
      <stop
         id="stop558"
         offset="0.984114"
         style="stop-opacity:1;stop-color:#f1b84c" />
      <stop
         id="stop560"
         offset="1"
         style="stop-opacity:1;stop-color:#f1b84c" />
    </linearGradient>
    <clipPath
       id="clipPath94"
       clipPathUnits="userSpaceOnUse">
      <path
         id="path92"
         d="m 171.598,433.162 c -16.685,0 -30.211,-13.523 -30.211,-30.207 v 0 -86.648 c 0,-16.688 13.526,-30.209 30.211,-30.209 v 0 h 86.652 c 16.683,0 30.206,13.521 30.206,30.209 v 0 86.648 c 0,16.684 -13.523,30.207 -30.206,30.207 v 0 z" />
    </clipPath>
    <linearGradient
       id="linearGradient110"
       spreadMethod="pad"
       gradientTransform="matrix(147.069,0,0,-147.069,141.38739,359.63016)"
       gradientUnits="userSpaceOnUse"
       y2="0"
       x2="1"
       y1="0"
       x1="0">
      <stop
         id="stop100"
         offset="0"
         style="stop-opacity:1;stop-color:#bd7521" />
      <stop
         id="stop102"
         offset="0.00577951"
         style="stop-opacity:1;stop-color:#bd7521" />
      <stop
         id="stop104"
         offset="0.527665"
         style="stop-opacity:1;stop-color:#f1b84c" />
      <stop
         id="stop106"
         offset="0.984114"
         style="stop-opacity:1;stop-color:#f1b84c" />
      <stop
         id="stop108"
         offset="1"
         style="stop-opacity:1;stop-color:#f1b84c" />
    </linearGradient>
    <clipPath
       id="clipPath120"
       clipPathUnits="userSpaceOnUse">
      <path
         id="path118"
         d="m 170.762,433.162 c -16.685,0 -30.211,-13.523 -30.211,-30.207 v 0 -86.648 c 0,-16.688 13.526,-30.209 30.211,-30.209 v 0 h 86.652 c 16.683,0 30.206,13.521 30.206,30.209 v 0 86.648 c 0,16.684 -13.523,30.207 -30.206,30.207 v 0 z" />
    </clipPath>
    <linearGradient
       id="linearGradient136"
       spreadMethod="pad"
       gradientTransform="matrix(147.069,0,0,-147.069,140.55141,359.63016)"
       gradientUnits="userSpaceOnUse"
       y2="0"
       x2="1"
       y1="0"
       x1="0">
      <stop
         id="stop126"
         offset="0"
         style="stop-opacity:1;stop-color:#bd7521" />
      <stop
         id="stop128"
         offset="0.00577951"
         style="stop-opacity:1;stop-color:#bd7521" />
      <stop
         id="stop130"
         offset="0.527665"
         style="stop-opacity:1;stop-color:#f1b84c" />
      <stop
         id="stop132"
         offset="0.984114"
         style="stop-opacity:1;stop-color:#f1b84c" />
      <stop
         id="stop134"
         offset="1"
         style="stop-opacity:1;stop-color:#f1b84c" />
    </linearGradient>
    <clipPath
       id="clipPath146"
       clipPathUnits="userSpaceOnUse">
      <path
         id="path144"
         d="m 171.598,433.162 c -16.685,0 -30.211,-13.523 -30.211,-30.207 v 0 -86.648 c 0,-16.688 13.526,-30.209 30.211,-30.209 v 0 h 86.652 c 16.683,0 30.206,13.521 30.206,30.209 v 0 86.648 c 0,16.684 -13.523,30.207 -30.206,30.207 v 0 z" />
    </clipPath>
    <clipPath
       id="clipPath172"
       clipPathUnits="userSpaceOnUse">
      <path
         id="path170"
         d="m 171.598,433.998 c -16.685,0 -30.211,-13.523 -30.211,-30.207 v 0 -86.648 c 0,-16.688 13.526,-30.209 30.211,-30.209 v 0 h 86.652 c 16.683,0 30.206,13.521 30.206,30.209 v 0 86.648 c 0,16.684 -13.523,30.207 -30.206,30.207 v 0 z" />
    </clipPath>
    <linearGradient
       id="linearGradient188"
       spreadMethod="pad"
       gradientTransform="matrix(147.069,0,0,-147.069,141.38739,360.46616)"
       gradientUnits="userSpaceOnUse"
       y2="0"
       x2="1"
       y1="0"
       x1="0">
      <stop
         id="stop178"
         offset="0"
         style="stop-opacity:1;stop-color:#bd7521" />
      <stop
         id="stop180"
         offset="0.00577951"
         style="stop-opacity:1;stop-color:#bd7521" />
      <stop
         id="stop182"
         offset="0.527665"
         style="stop-opacity:1;stop-color:#f1b84c" />
      <stop
         id="stop184"
         offset="0.984114"
         style="stop-opacity:1;stop-color:#f1b84c" />
      <stop
         id="stop186"
         offset="1"
         style="stop-opacity:1;stop-color:#f1b84c" />
    </linearGradient>
    <clipPath
       id="clipPath198"
       clipPathUnits="userSpaceOnUse">
      <path
         id="path196"
         d="m 171.598,433.162 c -16.685,0 -30.211,-13.523 -30.211,-30.207 v 0 -86.648 c 0,-16.688 13.526,-30.209 30.211,-30.209 v 0 h 86.652 c 16.683,0 30.206,13.521 30.206,30.209 v 0 86.648 c 0,16.684 -13.523,30.207 -30.206,30.207 v 0 z" />
    </clipPath>
    <clipPath
       id="clipPath224"
       clipPathUnits="userSpaceOnUse">
      <path
         id="path222"
         d="M 0,800 H 800 V 0 H 0 Z" />
    </clipPath>
    <linearGradient
       spreadMethod="pad"
       y2="0"
       x2="1"
       y1="0"
       x1="0"
       gradientTransform="matrix(147.069,0,0,-147.069,141.38739,359.63016)"
       gradientUnits="userSpaceOnUse"
       id="linearGradient2544"
       xlink:href="#linearGradient110" />
    <linearGradient
       spreadMethod="pad"
       y2="0"
       x2="1"
       y1="0"
       x1="0"
       gradientTransform="matrix(147.069,0,0,-147.069,141.38739,359.63016)"
       gradientUnits="userSpaceOnUse"
       id="linearGradient2546"
       xlink:href="#linearGradient110" />
    <linearGradient
       spreadMethod="pad"
       y2="0"
       x2="1"
       y1="0"
       x1="0"
       gradientTransform="matrix(147.069,0,0,-147.069,141.38739,359.63016)"
       gradientUnits="userSpaceOnUse"
       id="linearGradient2548"
       xlink:href="#linearGradient110" />
  </defs>
  <metadata
     id="metadata1657">
    <rdf:RDF>
      <cc:Work
         rdf:about="">
        <dc:format>image/svg+xml</dc:format>
        <dc:type
           rdf:resource="http://purl.org/dc/dcmitype/StillImage" />
        <dc:title></dc:title>
      </cc:Work>
    </rdf:RDF>
  </metadata>
  <g
     id="layer1">
    <g
       id="g2326"
       transform="matrix(0.28268446,0,0,-0.28268446,-39.66004,122.7912)">
      <g
         id="g88">
        <g
           id="g90"
           clip-path="url(#clipPath94)">
          <g
             id="g96">
            <g
               id="g98">
              <path
                 d="m 171.598,433.162 c -16.685,0 -30.211,-13.523 -30.211,-30.207 v 0 -86.648 c 0,-16.688 13.526,-30.209 30.211,-30.209 v 0 h 86.652 c 16.683,0 30.206,13.521 30.206,30.209 v 0 86.648 c 0,16.684 -13.523,30.207 -30.206,30.207 v 0 z"
                 style="fill:url(#linearGradient2544);stroke:none"
                 id="path112" />
            </g>
          </g>
        </g>
      </g>
      <g
         id="g114">
        <g
           id="g116"
           clip-path="url(#clipPath120)">
          <g
             id="g122">
            <g
               id="g124">
              <path
                 d="m 170.762,433.162 c -16.685,0 -30.211,-13.523 -30.211,-30.207 v 0 -86.648 c 0,-16.688 13.526,-30.209 30.211,-30.209 v 0 h 86.652 c 16.683,0 30.206,13.521 30.206,30.209 v 0 86.648 c 0,16.684 -13.523,30.207 -30.206,30.207 v 0 z"
                 style="fill:url(#linearGradient136);stroke:none"
                 id="path138" />
            </g>
          </g>
        </g>
      </g>
      <g
         id="g140">
        <g
           id="g142"
           clip-path="url(#clipPath146)">
          <g
             id="g148">
            <g
               id="g150">
              <path
                 d="m 171.598,433.162 c -16.685,0 -30.211,-13.523 -30.211,-30.207 v 0 -86.648 c 0,-16.688 13.526,-30.209 30.211,-30.209 v 0 h 86.652 c 16.683,0 30.206,13.521 30.206,30.209 v 0 86.648 c 0,16.684 -13.523,30.207 -30.206,30.207 v 0 z"
                 style="fill:url(#linearGradient2546);stroke:none"
                 id="path164" />
            </g>
          </g>
        </g>
      </g>
      <g
         id="g166">
        <g
           id="g168"
           clip-path="url(#clipPath172)">
          <g
             id="g174">
            <g
               id="g176">
              <path
                 d="m 171.598,433.998 c -16.685,0 -30.211,-13.523 -30.211,-30.207 v 0 -86.648 c 0,-16.688 13.526,-30.209 30.211,-30.209 v 0 h 86.652 c 16.683,0 30.206,13.521 30.206,30.209 v 0 86.648 c 0,16.684 -13.523,30.207 -30.206,30.207 v 0 z"
                 style="fill:url(#linearGradient188);stroke:none"
                 id="path190" />
            </g>
          </g>
        </g>
      </g>
      <g
         id="g192">
        <g
           id="g194"
           clip-path="url(#clipPath198)">
          <g
             id="g200">
            <g
               id="g202">
              <path
                 d="m 171.598,433.162 c -16.685,0 -30.211,-13.523 -30.211,-30.207 v 0 -86.648 c 0,-16.688 13.526,-30.209 30.211,-30.209 v 0 h 86.652 c 16.683,0 30.206,13.521 30.206,30.209 v 0 86.648 c 0,16.684 -13.523,30.207 -30.206,30.207 v 0 z"
                 style="fill:url(#linearGradient2548);stroke:none"
                 id="path216" />
            </g>
          </g>
        </g>
      </g>
      <g
         id="g218">
        <g
           id="g220"
           clip-path="url(#clipPath224)">
          <g
             id="g226"
             transform="translate(254.464,392.6658)">
            <path
               d="M 0,0 H 13.567 V 21.394 H -3.281 -6.765 c 0,0 -12.782,0.318 -20.932,-10.308 0,0 -5.55,-5.25 -5.635,-20.623 h -0.004 v -16.046 h -20.095 v -22.716 h 20.095 v -58.686 h 23.178 v 58.686 H 9.781 l 2.778,22.716 h -22.717 v 16.046 h -0.006 C -10.108,-7.745 -9.313,0.161 0,0"
               style="fill:#ffffff;fill-opacity:1;fill-rule:nonzero;stroke:none"
               id="path228" />
          </g>
        </g>
      </g>
    </g>
  </g>
</svg>
