<?xml version="1.0" encoding="UTF-8" standalone="no"?>
<svg
   xmlns:dc="http://purl.org/dc/elements/1.1/"
   xmlns:cc="http://creativecommons.org/ns#"
   xmlns:rdf="http://www.w3.org/1999/02/22-rdf-syntax-ns#"
   xmlns:svg="http://www.w3.org/2000/svg"
   xmlns="http://www.w3.org/2000/svg"
   id="SVGRoot"
   version="1.1"
   viewBox="0 0 42 42"
   height="42px"
   width="42px">
  <defs
     id="defs1654">
    <clipPath
       id="clipPath546"
       clipPathUnits="userSpaceOnUse">
      <path
         id="path544"
         d="m 356.589,609.599 c -16.685,0 -30.212,-13.53 -30.212,-30.211 v 0 -86.65 c 0,-16.687 13.527,-30.206 30.212,-30.206 v 0 h 86.647 c 16.686,0 30.206,13.519 30.206,30.206 v 0 86.65 c 0,16.681 -13.52,30.211 -30.206,30.211 v 0 z" />
    </clipPath>
    <linearGradient
       id="linearGradient562"
       spreadMethod="pad"
       gradientTransform="matrix(147.0649,0,0,-147.0649,326.37732,536.06555)"
       gradientUnits="userSpaceOnUse"
       y2="0"
       x2="1"
       y1="0"
       x1="0">
      <stop
         id="stop552"
         offset="0"
         style="stop-opacity:1;stop-color:#bd7521" />
      <stop
         id="stop554"
         offset="0.00577951"
         style="stop-opacity:1;stop-color:#bd7521" />
      <stop
         id="stop556"
         offset="0.527665"
         style="stop-opacity:1;stop-color:#f1b84c" />
      <stop
         id="stop558"
         offset="0.984114"
         style="stop-opacity:1;stop-color:#f1b84c" />
      <stop
         id="stop560"
         offset="1"
         style="stop-opacity:1;stop-color:#f1b84c" />
    </linearGradient>
    <clipPath
       id="clipPath94"
       clipPathUnits="userSpaceOnUse">
      <path
         id="path92"
         d="m 171.598,433.162 c -16.685,0 -30.211,-13.523 -30.211,-30.207 v 0 -86.648 c 0,-16.688 13.526,-30.209 30.211,-30.209 v 0 h 86.652 c 16.683,0 30.206,13.521 30.206,30.209 v 0 86.648 c 0,16.684 -13.523,30.207 -30.206,30.207 v 0 z" />
    </clipPath>
    <linearGradient
       id="linearGradient110"
       spreadMethod="pad"
       gradientTransform="matrix(147.069,0,0,-147.069,141.38739,359.63016)"
       gradientUnits="userSpaceOnUse"
       y2="0"
       x2="1"
       y1="0"
       x1="0">
      <stop
         id="stop100"
         offset="0"
         style="stop-opacity:1;stop-color:#bd7521" />
      <stop
         id="stop102"
         offset="0.00577951"
         style="stop-opacity:1;stop-color:#bd7521" />
      <stop
         id="stop104"
         offset="0.527665"
         style="stop-opacity:1;stop-color:#f1b84c" />
      <stop
         id="stop106"
         offset="0.984114"
         style="stop-opacity:1;stop-color:#f1b84c" />
      <stop
         id="stop108"
         offset="1"
         style="stop-opacity:1;stop-color:#f1b84c" />
    </linearGradient>
    <clipPath
       id="clipPath120"
       clipPathUnits="userSpaceOnUse">
      <path
         id="path118"
         d="m 170.762,433.162 c -16.685,0 -30.211,-13.523 -30.211,-30.207 v 0 -86.648 c 0,-16.688 13.526,-30.209 30.211,-30.209 v 0 h 86.652 c 16.683,0 30.206,13.521 30.206,30.209 v 0 86.648 c 0,16.684 -13.523,30.207 -30.206,30.207 v 0 z" />
    </clipPath>
    <linearGradient
       id="linearGradient136"
       spreadMethod="pad"
       gradientTransform="matrix(147.069,0,0,-147.069,140.55141,359.63016)"
       gradientUnits="userSpaceOnUse"
       y2="0"
       x2="1"
       y1="0"
       x1="0">
      <stop
         id="stop126"
         offset="0"
         style="stop-opacity:1;stop-color:#bd7521" />
      <stop
         id="stop128"
         offset="0.00577951"
         style="stop-opacity:1;stop-color:#bd7521" />
      <stop
         id="stop130"
         offset="0.527665"
         style="stop-opacity:1;stop-color:#f1b84c" />
      <stop
         id="stop132"
         offset="0.984114"
         style="stop-opacity:1;stop-color:#f1b84c" />
      <stop
         id="stop134"
         offset="1"
         style="stop-opacity:1;stop-color:#f1b84c" />
    </linearGradient>
    <clipPath
       id="clipPath146"
       clipPathUnits="userSpaceOnUse">
      <path
         id="path144"
         d="m 171.598,433.162 c -16.685,0 -30.211,-13.523 -30.211,-30.207 v 0 -86.648 c 0,-16.688 13.526,-30.209 30.211,-30.209 v 0 h 86.652 c 16.683,0 30.206,13.521 30.206,30.209 v 0 86.648 c 0,16.684 -13.523,30.207 -30.206,30.207 v 0 z" />
    </clipPath>
    <clipPath
       id="clipPath172"
       clipPathUnits="userSpaceOnUse">
      <path
         id="path170"
         d="m 171.598,433.998 c -16.685,0 -30.211,-13.523 -30.211,-30.207 v 0 -86.648 c 0,-16.688 13.526,-30.209 30.211,-30.209 v 0 h 86.652 c 16.683,0 30.206,13.521 30.206,30.209 v 0 86.648 c 0,16.684 -13.523,30.207 -30.206,30.207 v 0 z" />
    </clipPath>
    <linearGradient
       id="linearGradient188"
       spreadMethod="pad"
       gradientTransform="matrix(147.069,0,0,-147.069,141.38739,360.46616)"
       gradientUnits="userSpaceOnUse"
       y2="0"
       x2="1"
       y1="0"
       x1="0">
      <stop
         id="stop178"
         offset="0"
         style="stop-opacity:1;stop-color:#bd7521" />
      <stop
         id="stop180"
         offset="0.00577951"
         style="stop-opacity:1;stop-color:#bd7521" />
      <stop
         id="stop182"
         offset="0.527665"
         style="stop-opacity:1;stop-color:#f1b84c" />
      <stop
         id="stop184"
         offset="0.984114"
         style="stop-opacity:1;stop-color:#f1b84c" />
      <stop
         id="stop186"
         offset="1"
         style="stop-opacity:1;stop-color:#f1b84c" />
    </linearGradient>
    <clipPath
       id="clipPath198"
       clipPathUnits="userSpaceOnUse">
      <path
         id="path196"
         d="m 171.598,433.162 c -16.685,0 -30.211,-13.523 -30.211,-30.207 v 0 -86.648 c 0,-16.688 13.526,-30.209 30.211,-30.209 v 0 h 86.652 c 16.683,0 30.206,13.521 30.206,30.209 v 0 86.648 c 0,16.684 -13.523,30.207 -30.206,30.207 v 0 z" />
    </clipPath>
    <clipPath
       id="clipPath224"
       clipPathUnits="userSpaceOnUse">
      <path
         id="path222"
         d="M 0,800 H 800 V 0 H 0 Z" />
    </clipPath>
    <clipPath
       id="clipPath432"
       clipPathUnits="userSpaceOnUse">
      <path
         id="path430"
         d="m 356.59,257.149 c -16.688,0 -30.216,-13.529 -30.216,-30.217 v 0 -86.649 c 0,-16.675 13.528,-30.207 30.216,-30.207 v 0 h 86.64 c 16.687,0 30.216,13.532 30.216,30.207 v 0 86.649 c 0,16.688 -13.529,30.217 -30.216,30.217 v 0 z" />
    </clipPath>
    <linearGradient
       id="linearGradient448"
       spreadMethod="pad"
       gradientTransform="matrix(147.07143,0,0,-147.07143,326.37405,183.61275)"
       gradientUnits="userSpaceOnUse"
       y2="0"
       x2="1"
       y1="0"
       x1="0">
      <stop
         id="stop438"
         offset="0"
         style="stop-opacity:1;stop-color:#bd7521" />
      <stop
         id="stop440"
         offset="0.00577951"
         style="stop-opacity:1;stop-color:#bd7521" />
      <stop
         id="stop442"
         offset="0.527665"
         style="stop-opacity:1;stop-color:#f1b84c" />
      <stop
         id="stop444"
         offset="0.984114"
         style="stop-opacity:1;stop-color:#f1b84c" />
      <stop
         id="stop446"
         offset="1"
         style="stop-opacity:1;stop-color:#f1b84c" />
    </linearGradient>
  </defs>
  <metadata
     id="metadata1657">
    <rdf:RDF>
      <cc:Work
         rdf:about="">
        <dc:format>image/svg+xml</dc:format>
        <dc:type
           rdf:resource="http://purl.org/dc/dcmitype/StillImage" />
        <dc:title></dc:title>
      </cc:Work>
    </rdf:RDF>
  </metadata>
  <g
     id="layer1">
    <g
       id="g2608"
       transform="matrix(0.28470111,0,0,-0.28470111,-92.795618,73.284691)">
      <g
         id="g426">
        <g
           id="g428"
           clip-path="url(#clipPath432)">
          <g
             id="g434">
            <g
               id="g436">
              <path
                 d="m 356.59,257.149 c -16.688,0 -30.216,-13.529 -30.216,-30.217 v 0 -86.649 c 0,-16.675 13.528,-30.207 30.216,-30.207 v 0 h 86.64 c 16.687,0 30.216,13.532 30.216,30.207 v 0 86.649 c 0,16.688 -13.529,30.217 -30.216,30.217 v 0 z"
                 style="fill:url(#linearGradient448);stroke:none"
                 id="path450" />
            </g>
          </g>
        </g>
      </g>
      <g
         id="g196"
         transform="matrix(3.911302,0,0,3.911302,399.64079,246.16085)">
        <path
           d="m 0,0 c -8.995,0 -16.288,-7.293 -16.288,-16.29 0,-7.197 4.667,-13.302 11.14,-15.457 0.815,-0.149 1.112,0.354 1.112,0.786 0,0.386 -0.014,1.411 -0.022,2.77 -4.531,-0.984 -5.487,2.184 -5.487,2.184 -0.741,1.882 -1.809,2.383 -1.809,2.383 -1.479,1.01 0.112,0.99 0.112,0.99 1.635,-0.115 2.495,-1.679 2.495,-1.679 1.453,-2.489 3.813,-1.77 4.741,-1.353 0.148,1.052 0.568,1.77 1.034,2.177 -3.617,0.411 -7.42,1.809 -7.42,8.051 0,1.778 0.635,3.232 1.677,4.371 -0.168,0.412 -0.727,2.068 0.159,4.311 0,0 1.368,0.438 4.48,-1.67 1.299,0.362 2.693,0.542 4.078,0.548 1.383,-0.006 2.777,-0.186 4.078,-0.548 3.11,2.108 4.475,1.67 4.475,1.67 0.889,-2.243 0.33,-3.899 0.162,-4.311 1.044,-1.139 1.675,-2.593 1.675,-4.371 0,-6.258 -3.809,-7.635 -7.438,-8.038 0.585,-0.503 1.106,-1.497 1.106,-3.017 0,-2.177 -0.02,-3.934 -0.02,-4.468 0,-0.436 0.293,-0.943 1.12,-0.784 6.468,2.159 11.131,8.26 11.131,15.455 C 16.291,-7.293 8.997,0 0,0"
           style="fill:#ffffff;fill-opacity:1;fill-rule:evenodd;stroke:none"
           id="path198" />
      </g>
    </g>
  </g>
</svg>
