<?xml version="1.0" encoding="UTF-8" standalone="no"?>
<svg
   xmlns:dc="http://purl.org/dc/elements/1.1/"
   xmlns:cc="http://creativecommons.org/ns#"
   xmlns:rdf="http://www.w3.org/1999/02/22-rdf-syntax-ns#"
   xmlns:svg="http://www.w3.org/2000/svg"
   xmlns="http://www.w3.org/2000/svg"
   id="SVGRoot"
   version="1.1"
   viewBox="0 0 42 42"
   height="42px"
   width="42px">
  <defs
     id="defs1654">
    <clipPath
       id="clipPath546"
       clipPathUnits="userSpaceOnUse">
      <path
         id="path544"
         d="m 356.589,609.599 c -16.685,0 -30.212,-13.53 -30.212,-30.211 v 0 -86.65 c 0,-16.687 13.527,-30.206 30.212,-30.206 v 0 h 86.647 c 16.686,0 30.206,13.519 30.206,30.206 v 0 86.65 c 0,16.681 -13.52,30.211 -30.206,30.211 v 0 z" />
    </clipPath>
    <linearGradient
       id="linearGradient562"
       spreadMethod="pad"
       gradientTransform="matrix(147.0649,0,0,-147.0649,326.37732,536.06555)"
       gradientUnits="userSpaceOnUse"
       y2="0"
       x2="1"
       y1="0"
       x1="0">
      <stop
         id="stop552"
         offset="0"
         style="stop-opacity:1;stop-color:#bd7521" />
      <stop
         id="stop554"
         offset="0.00577951"
         style="stop-opacity:1;stop-color:#bd7521" />
      <stop
         id="stop556"
         offset="0.527665"
         style="stop-opacity:1;stop-color:#f1b84c" />
      <stop
         id="stop558"
         offset="0.984114"
         style="stop-opacity:1;stop-color:#f1b84c" />
      <stop
         id="stop560"
         offset="1"
         style="stop-opacity:1;stop-color:#f1b84c" />
    </linearGradient>
  </defs>
  <metadata
     id="metadata1657">
    <rdf:RDF>
      <cc:Work
         rdf:about="">
        <dc:format>image/svg+xml</dc:format>
        <dc:type
           rdf:resource="http://purl.org/dc/dcmitype/StillImage" />
        <dc:title></dc:title>
      </cc:Work>
    </rdf:RDF>
  </metadata>
  <g
     id="layer1">
    <g
       transform="matrix(0.21268101,0,0,0.21268101,11.210292,13.130468)"
       id="g2263">
      <g
         transform="matrix(1.3333333,0,0,-1.3333333,-487.11109,751.83211)"
         id="g1610">
        <g
           id="g540">
          <g
             clip-path="url(#clipPath546)"
             id="g542">
            <g
               id="g548">
              <g
                 id="g550">
                <path
                   id="path564"
                   style="fill:url(#linearGradient562);stroke:none"
                   d="m 356.589,609.599 c -16.685,0 -30.212,-13.53 -30.212,-30.211 v 0 -86.65 c 0,-16.687 13.527,-30.206 30.212,-30.206 v 0 h 86.647 c 16.686,0 30.206,13.519 30.206,30.206 v 0 86.65 c 0,16.681 -13.52,30.211 -30.206,30.211 v 0 z" />
              </g>
            </g>
          </g>
        </g>
        <g
           transform="translate(364.2269,586.9921)"
           id="g574">
          <path
             id="path576"
             style="fill:#ffffff;fill-opacity:1;fill-rule:nonzero;stroke:none"
             d="m 0,0 c 6.525,0 11.831,-5.309 11.831,-11.848 0,-6.535 -5.306,-11.831 -11.831,-11.831 -6.545,0 -11.835,5.296 -11.835,11.831 C -11.835,-5.309 -6.545,0 0,0 m -10.215,-32.659 h 20.423 v -65.7 h -20.423 z" />
        </g>
        <g
           transform="translate(387.2417,554.3331)"
           id="g578">
          <path
             id="path580"
             style="fill:#ffffff;fill-opacity:1;fill-rule:nonzero;stroke:none"
             d="m 0,0 h 19.59 v -8.988 h 0.28 c 2.724,5.17 9.386,10.611 19.318,10.611 20.679,0 24.498,-13.603 24.498,-31.289 V -65.7 H 43.273 v 31.949 c 0,7.619 -0.131,17.425 -10.615,17.425 -10.623,0 -12.245,-8.31 -12.245,-16.878 V -65.7 H 0 Z" />
        </g>
      </g>
    </g>
  </g>
</svg>
