<?xml version="1.0" encoding="UTF-8" standalone="no"?>
<svg
   xmlns:dc="http://purl.org/dc/elements/1.1/"
   xmlns:cc="http://creativecommons.org/ns#"
   xmlns:rdf="http://www.w3.org/1999/02/22-rdf-syntax-ns#"
   xmlns:svg="http://www.w3.org/2000/svg"
   xmlns="http://www.w3.org/2000/svg"
   id="SVGRoot"
   version="1.1"
   viewBox="0 0 20 20"
   height="20px"
   width="20px">
  <defs
     id="defs2240">
    <style
       id="style2796">.cls-1{fill:none;stroke:#000;stroke-linejoin:round;stroke-width:2px;}</style>
  </defs>
  <metadata
     id="metadata2243">
    <rdf:RDF>
      <cc:Work
         rdf:about="">
        <dc:format>image/svg+xml</dc:format>
        <dc:type
           rdf:resource="http://purl.org/dc/dcmitype/StillImage" />
        <dc:title></dc:title>
      </cc:Work>
    </rdf:RDF>
  </metadata>
  <g
     id="layer1">
    <g
       transform="matrix(0.798,0,0,0.798,-3.1561149,-3.4407368)"
       style="fill:#000000;fill-rule:evenodd;stroke:none;stroke-width:1"
       id="Page-1">
      <g
         style="fill:#000000"
         id="icon-92-inbox-download">
        <path
           style="fill:#000000"
           d="M 16,16 12.75,12.75 12,13.5 16.5,18 21,13.5 20.25,12.75 17,16 V 5 h -1 z m 2,-5 h 5.400024 l 4.375,7 H 21 v 2.002087 C 21,21.101739 20.105737,22 19.002608,22 H 13.997392 C 12.895858,22 12,21.105504 12,20.002087 V 18 H 5.2249756 v 0 l 4.375,-7 H 15 V 10 H 9 L 4,18 V 18.5 27 H 29 V 18.5 18 l -5,-8 h -6 z m 4,8 h 6 v 7 H 5 v -7 h 6 v 1.5 c 0,1.380712 1.115274,2.5 2.49607,2.5 h 6.00786 C 20.882471,23 22,21.890338 22,20.5 Z"
           id="inbox-download" />
      </g>
    </g>
  </g>
</svg>
