<?xml version="1.0" encoding="UTF-8" standalone="no"?>
<svg
   xmlns:dc="http://purl.org/dc/elements/1.1/"
   xmlns:cc="http://creativecommons.org/ns#"
   xmlns:rdf="http://www.w3.org/1999/02/22-rdf-syntax-ns#"
   xmlns:svg="http://www.w3.org/2000/svg"
   xmlns="http://www.w3.org/2000/svg"
   id="SVGRoot"
   version="1.1"
   viewBox="0 0 30 30"
   height="30px"
   width="30px">
  <defs
     id="defs1080" />
  <metadata
     id="metadata1083">
    <rdf:RDF>
      <cc:Work
         rdf:about="">
        <dc:format>image/svg+xml</dc:format>
        <dc:type
           rdf:resource="http://purl.org/dc/dcmitype/StillImage" />
        <dc:title></dc:title>
      </cc:Work>
    </rdf:RDF>
  </metadata>
  <g
     id="layer1">
    <g
       transform="matrix(1.0207212,0,0,1.0207212,0.54086701,-0.1309059)"
       id="g1703">
      <path
         d="M 25.770932,24.681907 H 3.9037145 V 2.8146893 H 25.770932 Z"
         style="fill:none;stroke:#000000;stroke-width:0.81798589;stroke-linecap:butt;stroke-linejoin:miter;stroke-miterlimit:10;stroke-dasharray:none;stroke-opacity:1"
         id="path130" />
      <g
         id="g132"
         transform="matrix(0.10815077,0,0,-0.10815077,23.236186,26.17694)">
        <path
           d="m 0,0 c -1.94,2.027 4.56,0.489 3.938,3.769 -1.939,2.027 -5.818,6.08 -7.76,8.109 0.029,3.906 5.877,1.737 5.903,5.649 0.031,3.908 -9.038,10.755 -9.665,14.039 -4.512,7.338 5.846,-2.171 11.663,-8.249 -0.626,3.28 3.879,-4.053 5.191,-2.797 2.624,2.511 5.249,5.023 -0.54,15.01 -1.283,2.655 2.625,2.512 3.936,3.767 -23.27,24.315 -48.48,50.657 -74.372,72.459 -0.236,0.203 -0.471,0.422 -0.707,0.627 16.081,18.927 38.322,37.348 52.952,56.38 4.797,6.24 16.48,13.048 16.854,19.948 -1.814,-1.867 -3.63,-3.736 -5.444,-5.603 3.489,7.503 10.893,11.21 15.687,17.448 -1.303,1.267 -1.954,1.899 -0.788,4.404 -3.632,-3.738 -8.426,-9.977 -12.713,-13.083 l -1.952,1.896 c 2.982,4.375 9.731,8.714 12.713,13.083 -0.653,0.635 -1.955,1.901 -2.607,2.534 -0.65,0.632 1.166,2.501 2.98,4.368 -1.814,-1.867 -5.448,-5.607 -7.263,-7.474 -0.65,0.632 -1.954,1.898 -2.603,2.53 -0.653,0.634 1.161,2.501 2.979,4.372 -1.301,1.265 -0.789,4.4 -3.255,3.163 -1.818,-1.871 -3.633,-3.738 -5.449,-5.607 6.613,8.11 6.989,15.011 5.035,16.91 -1.166,-2.505 -3.12,-0.605 -4.282,-3.106 3.492,7.504 6.336,15.642 -1.577,8.799 -30.546,-29.611 -60.491,-60.599 -90.071,-91.994 -11.223,12.126 -22.435,24.375 -33.858,33.992 -6.474,5.452 -13.542,18.094 -20.699,19.006 1.937,-2.024 3.877,-4.051 5.815,-6.076 -7.785,4.191 -11.634,12.156 -18.107,17.605 -1.313,-1.257 -1.968,-1.884 -4.567,-0.484 3.879,-4.053 10.352,-9.502 13.577,-14.186 l -1.966,-1.882 c -4.539,3.426 -9.043,10.76 -13.577,14.187 -0.658,-0.63 -1.97,-1.886 -2.626,-2.513 -0.655,-0.628 -2.595,1.399 -4.532,3.423 1.937,-2.024 5.818,-6.08 7.756,-8.104 -0.656,-0.627 -1.969,-1.884 -2.624,-2.51 -0.657,-0.63 -2.595,1.395 -4.536,3.424 -1.311,-1.255 -4.564,-0.485 -3.279,-3.139 1.941,-2.029 3.879,-4.053 5.818,-6.08 -8.415,7.478 -15.573,8.393 -17.542,6.509 2.599,-1.4 0.63,-3.285 3.224,-4.68 -7.785,4.193 -16.227,7.762 -9.126,-0.969 23.606,-26.079 48.058,-51.849 72.892,-77.394 -24.326,-26.143 -48.449,-52.36 -72.494,-78.112 -2.98,-4.371 0.142,-3.763 1.444,-5.029 7.259,7.47 13.871,15.579 20.621,19.919 1.816,1.869 0.792,-4.396 3.909,-3.799 1.816,1.869 5.448,5.607 7.266,7.478 3.767,-0.03 2.088,-5.666 5.861,-5.694 3.767,-0.031 9.726,8.709 12.845,9.312 6.754,4.346 -1.679,-5.636 -7.125,-11.241 3.116,0.602 -3.633,-3.738 -2.33,-5.003 2.605,-2.531 5.211,-5.064 14.426,0.513 2.468,1.235 2.605,-2.532 3.907,-3.797 13.796,14.197 28.317,29.146 41.985,44.535 34.774,-35.184 69.945,-69.983 104.314,-104.591 4.536,-3.425 3.904,-0.138 5.216,1.117 C 12.92,-14.812 4.505,-7.334 0,0"
           style="fill:#d70613;fill-opacity:1;fill-rule:nonzero;stroke:none"
           id="path134" />
      </g>
    </g>
  </g>
</svg>
