<?xml version="1.0" encoding="UTF-8" standalone="no"?>
<svg
   xmlns:dc="http://purl.org/dc/elements/1.1/"
   xmlns:cc="http://creativecommons.org/ns#"
   xmlns:rdf="http://www.w3.org/1999/02/22-rdf-syntax-ns#"
   xmlns:svg="http://www.w3.org/2000/svg"
   xmlns="http://www.w3.org/2000/svg"
   xmlns:sodipodi="http://sodipodi.sourceforge.net/DTD/sodipodi-0.dtd"
   xmlns:inkscape="http://www.inkscape.org/namespaces/inkscape"
   id="SVGRoot"
   version="1.1"
   viewBox="0 0 1600 900"
   height="900px"
   width="1600px"
   sodipodi:docname="layer3.svg"
   inkscape:version="0.92.3 (d244b95, 2018-08-02)">
  <sodipodi:namedview
     pagecolor="#ffffff"
     bordercolor="#666666"
     borderopacity="1"
     objecttolerance="10"
     gridtolerance="10"
     guidetolerance="10"
     inkscape:pageopacity="0"
     inkscape:pageshadow="2"
     inkscape:window-width="1625"
     inkscape:window-height="1022"
     id="namedview14"
     showgrid="false"
     inkscape:zoom="0.26222222"
     inkscape:cx="800"
     inkscape:cy="450"
     inkscape:window-x="1421"
     inkscape:window-y="0"
     inkscape:window-maximized="1"
     inkscape:current-layer="SVGRoot" />
  <defs
     id="defs315">
    <clipPath
       id="clipPath8436"
       clipPathUnits="userSpaceOnUse">
      <rect
         transform="scale(1,-1)"
         y="-37.691357"
         x="2.8397958"
         height="589.30176"
         width="801.23383"
         id="rect8438"
         style="opacity:0.869;fill:#ec0000;fill-opacity:0.91904758;stroke-width:0.38680726" />
    </clipPath>
    <clipPath
       id="clipPath8430"
       clipPathUnits="userSpaceOnUse">
      <rect
         transform="scale(1,-1)"
         y="-186.65892"
         x="-803.3465"
         height="533.40521"
         width="789.64807"
         id="rect8432"
         style="opacity:1;fill:#000000;fill-opacity:0.07070707;stroke-width:0.40320551" />
    </clipPath>
    <clipPath
       id="clipPath8426"
       clipPathUnits="userSpaceOnUse">
      <rect
         transform="scale(1,-1)"
         y="-599.16718"
         x="8.7483711"
         height="552.5675"
         width="772.46484"
         id="rect8428"
         style="opacity:1;fill:#000000;fill-opacity:0.07070707;stroke-width:0.4058944" />
    </clipPath>
  </defs>
  <metadata
     id="metadata318">
    <rdf:RDF>
      <cc:Work
         rdf:about="">
        <dc:format>image/svg+xml</dc:format>
        <dc:type
           rdf:resource="http://purl.org/dc/dcmitype/StillImage" />
        <dc:title />
      </cc:Work>
    </rdf:RDF>
  </metadata>
  <g
     id="layer1"
     transform="matrix(1,0,0,0.89313745,0,105.8142)">
    <g
       transform="matrix(2.0930107,0,0,-1.5897773,-31.337148,978.72418)"
       id="g19618"
       style="display:inline">
      <path
         clip-path="url(#clipPath8426)"
         id="path19620"
         style="fill:#605d70;fill-opacity:1;fill-rule:nonzero;stroke:none"
         d="M 0,0 C -8.585,8.572 5.4,12.102 5.352,24.234 5.304,36.364 -3.691,36.329 -3.739,48.459 -3.787,60.59 4.688,60.624 4.64,72.755 4.592,84.886 -5.805,84.845 -5.853,96.975 c -0.048,12.131 5.085,12.152 5.037,24.283 -0.048,12.131 7.765,12.162 7.717,24.293 -0.048,12.132 -2.901,12.12 -2.949,24.252 -0.047,12.129 -5.416,12.108 -5.464,24.237 -0.048,12.131 4.895,12.15 4.847,24.281 -0.048,12.131 -6.771,12.105 -6.819,24.235 -0.048,12.133 -2.909,12.122 -2.957,24.254 -0.048,12.133 5.359,12.154 5.311,24.287 -0.048,12.132 -6.767,12.105 -6.815,24.238 -0.048,12.133 0.142,12.134 0.094,24.267 -0.048,12.134 2.037,12.143 1.989,24.277 -0.048,12.135 -6.686,19.069 4.44,23.913 10.451,4.55 1.033,-12.794 7.675,-22.058 6.643,-9.265 17.992,-1.128 24.634,-10.393 6.641,-9.262 6.587,-9.301 13.228,-18.563 6.643,-9.266 7.141,-8.909 13.784,-18.175 6.643,-9.266 5.734,-9.917 12.378,-19.184 6.644,-9.267 2.775,-12.041 9.419,-21.308 6.644,-9.268 0.172,-16.488 9.721,-22.722 10.088,-6.585 12.42,4.703 24.432,12.765 5.842,3.92 15.907,5.224 22.674,10.961 5.801,4.919 8.807,14.532 14.431,20.745 5.255,5.805 9.56,13.202 13.993,20.105 5.821,9.066 9.759,19.688 17.298,22.053 8.302,2.605 19.062,-1.143 28.115,-2.755 8.852,-1.576 17.251,-6.692 25.502,-8.427 9.991,-2.1 15.39,5.138 22.384,9.012 9.006,4.99 15.807,9.157 22.148,13.704 8.798,6.308 23.373,1.848 28.928,6.721 8.595,7.541 13.196,9.573 20.707,11.61 6.66,1.807 13.47,15.944 25.298,11.559 12.82,-1.567 9.999,-7.239 24.69,-4.219 7.631,1.568 14.471,10.951 23.305,13.237 8.298,2.146 10.77,6.183 16.216,11.453 5.94,5.748 14.149,12.448 21.312,15.13 5.928,2.219 12.152,-11.057 21.933,-15.367 5.71,-2.517 16.563,2.169 24.323,-3.657 5.436,-4.08 8.458,-12.608 15.126,-18.645 5.259,-4.76 7.841,-13.059 13.97,-19.189 5.137,-5.138 15.903,-5.491 21.709,-11.677 5.051,-5.38 15.843,-6.261 21.439,-12.49 5.07,-5.644 5.808,-15.538 12.724,-20.473 6.247,-4.457 15.515,-3.962 22.924,-7.872 6.886,-3.634 9.801,-16.187 17.418,-19.374 7.277,-3.044 17.561,1.206 25.271,-1.452 7.544,-2.6 15.243,-4.422 22.985,-6.673 7.751,-2.253 14.495,-7.93 22.229,-9.851 7.935,-1.972 15.142,-6.84 22.83,-8.484 8.13,-1.739 15.259,-8.099 22.847,-9.497 8.4,-1.547 18.541,9.512 25.922,8.351 8.952,-1.409 16.677,-4.186 23.523,-5.084 14.833,-1.944 24.323,7.135 28.184,-4.281 4.035,-11.926 -4.635,-14.164 -4.792,-26.754 -0.157,-12.587 4.332,-12.643 4.175,-25.231 -0.157,-12.588 -3.531,-12.546 -3.688,-25.135 -0.158,-12.589 -8.785,-12.481 -8.942,-25.07 -0.157,-12.591 11.481,-12.736 11.324,-25.327 -0.158,-12.59 -9.283,-12.476 -9.44,-25.067 -0.157,-12.591 6.079,-12.669 5.921,-25.259 -0.157,-12.591 -7.206,-12.503 -7.364,-25.094 -0.157,-12.593 5.348,-12.662 5.191,-25.255 -0.157,-12.593 9.221,-16.761 0.439,-25.787 -8.434,-8.669 -12.711,5.617 -24.806,5.617 -12.097,0 -12.097,-5.97 -24.193,-5.97 -12.095,0 -12.095,-2.825 -24.19,-2.825 -12.098,0 -12.098,-1.946 -24.196,-1.946 -12.095,0 -12.095,7.785 -24.19,7.785 -12.098,0 -12.098,3.349 -24.195,3.349 -12.096,0 -12.096,2.012 -24.192,2.012 -12.096,0 -12.096,-8.437 -24.193,-8.437 -12.097,0 -12.097,-6.077 -24.194,-6.077 -12.096,0 -12.096,14.115 -24.192,14.115 -12.098,0 -12.098,-13.51 -24.195,-13.51 -12.098,0 -12.098,8.299 -24.197,8.299 -12.097,0 -12.097,1.763 -24.194,1.763 -12.097,0 -12.097,-3.484 -24.194,-3.484 -12.097,0 -12.097,-0.471 -24.195,-0.471 -12.097,0 -12.097,-3.095 -24.194,-3.095 -12.098,0 -12.098,-0.401 -24.196,-0.401 -12.099,0 -12.099,-3.152 -24.199,-3.152 -12.098,0 -12.098,12.68 -24.196,12.68 -12.098,0 -12.098,-12.446 -24.197,-12.446 -12.098,0 -12.098,8.874 -24.196,8.874 -12.099,0 -12.099,-9.241 -24.197,-9.241 -12.099,0 -12.099,14.922 -24.198,14.922 -12.099,0 -12.099,-5.308 -24.197,-5.308 -12.097,0 -12.097,5.275 -24.194,5.275 -12.098,0 -12.098,-11.392 -24.196,-11.392 -12.099,0 -12.099,7.669 -24.197,7.669 -12.1,0 -12.1,0.232 -24.2,0.232 -12.1,0 -12.1,-5.875 -24.2,-5.875 -12.1,0 -12.1,9.433 -24.2,9.433 -12.1,0 -12.1,-9.61 -24.201,-9.61 -12.102,0 -12.644,5.628 -24.479,3.1 C 11.278,-1.457 8.564,-8.551 0,0"
         inkscape:connector-curvature="0" />
    </g>
  </g>
</svg>
