<?xml version="1.0" encoding="UTF-8" standalone="no"?>
<svg
   xmlns:dc="http://purl.org/dc/elements/1.1/"
   xmlns:cc="http://creativecommons.org/ns#"
   xmlns:rdf="http://www.w3.org/1999/02/22-rdf-syntax-ns#"
   xmlns:svg="http://www.w3.org/2000/svg"
   xmlns="http://www.w3.org/2000/svg"
   id="SVGRoot"
   version="1.1"
   viewBox="0 0 1600 900"
   height="900px"
   width="1600px">
  <defs
     id="defs315">
    <clipPath
       id="clipPath8436"
       clipPathUnits="userSpaceOnUse">
      <rect
         transform="scale(1,-1)"
         y="-37.691357"
         x="2.8397958"
         height="589.30176"
         width="801.23383"
         id="rect8438"
         style="opacity:0.869;fill:#ec0000;fill-opacity:0.91904758;stroke-width:0.38680726" />
    </clipPath>
  </defs>
  <metadata
     id="metadata318">
    <rdf:RDF>
      <cc:Work
         rdf:about="">
        <dc:format>image/svg+xml</dc:format>
        <dc:type
           rdf:resource="http://purl.org/dc/dcmitype/StillImage" />
        <dc:title></dc:title>
      </cc:Work>
    </rdf:RDF>
  </metadata>
  <g
     id="layer1">
    <g
       id="g43380"
       transform="matrix(2.0334934,0,0,-1.7010063,-19.306161,999.64689)"
       style="display:inline;opacity:1">
      <g
         id="g19610"
         transform="translate(-4.7423,537.965)">
        <path
           clip-path="url(#clipPath8436)"
           d="m 3.4872769,-14.793739 c 0.208,3.217 7.8530001,-3.804 11.8030001,-4.75 3.95,-0.946 10.255,0.667 17.688,1.882 7.434,1.215 13.271,9.3989996 23.721,15.8829996 10.45,6.484 21.82,14.4050004 34.82,29.2660004 6.36,7.27 19.661003,11.347 30.252003,10.164 10.591,-1.182 24.558,-6.702 37.107,-13.856 12.55,-7.154 24.596,-19.1610004 36.831,-29.8060004 12.236,-10.6439996 17.386,-28.1499996 27.035,-39.8039996 3.947,-4.767 14.373,-0.771 20.851,0.85 6.479,1.622 12.66,7.184 19.901,11.188 7.241,4.004 13.033,12.845 19.268,15.226 6.235,2.38 9.499,-8.924 12.96,-12.174 13.105,-12.305 28.082,-19.475 37.207,-30.378 9.125,-10.903 12.074,-25.145 19.524,-33.275 7.45,-8.130001 22.436,-4.265 30.516,-8.251001 8.081,-3.985 14.708,-14.604 25.724,-13.076 3.573,0.496 23.249,23.255001 27.273,29.815001 4.024,6.56 2.08,16.989 6.578,20.182 4.498,3.194 6.322,-2.056 11.46,-6.495 5.87,-5.072 13.895,-10.182 20.146,-12.479 6.251,-2.297 13.391,9.968 19.055,10.88 5.664,0.912 9.258,-1.322 13.367,3.234 4.11,4.556 11.605,8.285 13.192,16.919 1.708,9.29 27.314,-8.677 36.109,-19.013 8.796,-10.335 11.564,-30.420001 22.307,-35.771001 10.743,-5.35 24.244,1.779 35.869,11.279001 11.626,9.5 22.169,9.45 30.196,9.5 8.027,0.049 17.688,2.301 23.524,-3.026 5.837,-5.326 10.11,-13.978001 15.163,-20.605001 5.052,-6.627 7.876,-14.491 13.552,-18.343 16.208,-11 32.587,-19.309 46.11,-16.256 13.523,3.052 20.493,21.079 30.42,30.649 9.927,9.57 20.172,17.572001 25.591,26.124001 5.42,8.553 4.73,21.149 7.598,13.182 2.974,-8.258 -2.879,-8.39 -2.303,-17.149 0.576,-8.759001 7.651,-8.294001 8.227,-17.053001 0.576,-8.759 -2.893,-8.987 -2.318,-17.746 0.576,-8.759 1.112,-8.644 1.243,-17.421 0.253,-16.976 1.879,-16.954 1.687,-33.931 -0.192,-16.979 7.138,-17.062 6.946,-34.042 -0.191,-16.979 -7.116,-16.901 -7.308,-33.88 -0.192,-16.977 -6.808,-16.903 -7,-33.88 -0.192,-16.979 8.495,-17.077 8.303,-34.057 -0.192,-16.979 -0.995,-16.97 -1.187,-33.949 -0.192,-16.978 -8.776,-16.881 -8.968,-33.858 -0.192,-16.979 -0.618,-16.974 -0.81,-33.954 -0.192,-16.979 8.807,-17.081 8.615,-34.06 -0.192,-16.977 -7.589,-16.894 -7.78,-33.871 -0.192,-16.979 1.466,-16.998 1.274,-33.977 -0.192,-16.98 11.107,-17.73 -0.846,-29.792 -11.708,-11.815 -12.384,-3.706 -29.018,-3.706 -16.633,0 -16.633,-6.095 -33.267,-6.095 -16.635,0 -16.635,0.876 -33.269,0.876 -16.634,0 -16.634,3.211 -33.268,3.211 -16.636,0 -16.636,6.85 -33.273,6.85 -16.636,0 -16.636,-3.282 -33.272,-3.282 -16.634,0 -16.634,-2.726 -33.267,-2.726 -16.634,0 -16.634,-6.057 -33.268,-6.057 -16.634,0 -16.634,5.237 -33.269,5.237 -16.634,0 -16.634,-2.819 -33.268,-2.819 -16.636,0 -16.636,11.898 -33.272,11.898 -16.637,0 -16.637,-15.125 -33.273,-15.125 -16.633,0 -16.633,6.08 -33.267,6.08 -16.634,0 -16.634,-6.558 -33.267,-6.558 -16.635,0 -16.635,5.142 -33.269,5.142 -16.634,0 -16.634,5.382 -33.268,5.382 -16.637,0 -16.637,2.902 -33.273,2.902 -16.636,0 -16.636,-0.853 -33.272,-0.853 -16.634,0 -16.634,-0.297 -33.267,-0.297 -16.634,0 -16.634,2.351 -33.268,2.351 -16.634,0 -16.634,-5.682 -33.269,-5.682 -16.634003,0 -16.634003,3.095 -33.268003,3.095 -16.636,0 -16.636,0.691 -33.272,0.691 -16.637,0 -22.539,-17.508 -34.2450001,-5.688 -11.821,11.935 -0.831,17.761 -0.831,34.559 0,16.797 4.3300001,16.797 4.3300001,33.595 0,16.8 -7.3470001,16.8 -7.3470001,33.599 0,16.8 -1.61,16.8 -1.61,33.6 0,16.798 7.4120001,16.798 7.4120001,33.596 0,16.797 -3.8620001,16.797 -3.8620001,33.595 0,16.799 7.5030001,16.799 7.5030001,33.599 0,16.8 -2.393,16.8 -2.393,33.6 0,16.798 -3.0390001,16.798 -3.0390001,33.596 0,16.797 -2.627,16.797 -2.627,33.594 0,16.8 0.328,16.8 0.328,33.6 0,16.8 0.576,16.8 0.576,33.599 0,16.798 8.2780001,16.798 8.2780001,33.596 0,16.798001 -11.4740001,16.798001 -11.4740001,33.595001 0,16.8 11.2940001,17.431 8.8870001,34.057 -2.496,17.246 -10.5190001,16.783 -9.4350001,33.548"
           style="fill:#95a3a6;fill-opacity:1;fill-rule:nonzero;stroke:none"
           id="path19612" />
      </g>
    </g>
  </g>
</svg>
