<?xml version="1.0" encoding="UTF-8" standalone="no"?>
<svg
   xmlns:dc="http://purl.org/dc/elements/1.1/"
   xmlns:cc="http://creativecommons.org/ns#"
   xmlns:rdf="http://www.w3.org/1999/02/22-rdf-syntax-ns#"
   xmlns:svg="http://www.w3.org/2000/svg"
   xmlns="http://www.w3.org/2000/svg"
   id="SVGRoot"
   version="1.1"
   viewBox="0 0 1600 900"
   height="900px"
   width="1600px">
  <defs
     id="defs315">
    <clipPath
       id="clipPath8436"
       clipPathUnits="userSpaceOnUse">
      <rect
         transform="scale(1,-1)"
         y="-37.691357"
         x="2.8397958"
         height="589.30176"
         width="801.23383"
         id="rect8438"
         style="opacity:0.869;fill:#ec0000;fill-opacity:0.91904758;stroke-width:0.38680726" />
    </clipPath>
    <clipPath
       id="clipPath8430"
       clipPathUnits="userSpaceOnUse">
      <rect
         transform="scale(1,-1)"
         y="-186.65892"
         x="-803.3465"
         height="533.40521"
         width="789.64807"
         id="rect8432"
         style="opacity:1;fill:#000000;fill-opacity:0.07070707;stroke-width:0.40320551" />
    </clipPath>
  </defs>
  <metadata
     id="metadata318">
    <rdf:RDF>
      <cc:Work
         rdf:about="">
        <dc:format>image/svg+xml</dc:format>
        <dc:type
           rdf:resource="http://purl.org/dc/dcmitype/StillImage" />
        <dc:title></dc:title>
      </cc:Work>
    </rdf:RDF>
  </metadata>
  <g
     id="layer1">
    <g
       transform="matrix(2.0347358,0,0,-1.6746426,1628.5509,347.89602)"
       id="g19614"
       style="display:inline">
      <path
         clip-path="url(#clipPath8430)"
         id="path19616"
         style="fill:#7c8690;fill-opacity:1;fill-rule:nonzero;stroke:none"
         d="m 0,0 c -13.625,9.654 -17.418,-16.303 -32.651,-23.144 -15.235,-6.841 -13.802,-10.032 -29.037,-16.874 -15.236,-6.841 -16.959,-6.277 -33.658,-6.552 -19.298,-0.318 -14.551,8.041 -30.832,23.327 -8.461,7.944 -14.445,20.784 -25.849,28.445 -10.493,7.048 -22.143,12.421 -34.318,16.776 -12.108,4.331 -24.021,2.899 -37.028,2.247 -12.115,-0.607 -23.953,0.164 -36.21,-6.703 -9.989,-5.596 -18.758,-13.93 -28.47,-24.81 -8.919,-9.992 -17.072,-18.391 -24.553,-23.599 -11.795,-8.211 -24.353,-13.347 -33.465,-12.517 -10.828,0.986 -19.361,12.53 -28.085,20.89 -7.616,7.299 -14.071,16.819 -21.39,25.556 -7.423,8.859 -11.639,22.44 -20.017,28.741 -17.08,12.845 -32.744,3.012 -43.684,-7.209 -8.979,-8.388 -21.339,-15.391 -34.842,-24.271 -12.056,-7.927 -14.846,-12.802 -28.328,-6.692 -7.643,3.464 -17.259,8.721 -30.758,16.479 -8.495,4.882 -22.63,3.11 -34.705,9.642 -10.026,5.423 -17.305,11.864 -28.174,10.03 -10.28,-1.735 -20.576,1.931 -31.48,2.196 -9.677,0.235 -16.561,-0.417 -26.637,7.531 -6.834,5.39 -19.514,7.561 -26.496,18.726 -6.471,10.348 -6.885,25.043 -14.457,32.13 -8.873,8.304 -20.662,13.574 -29.887,18.308 -11.11,5.703 -24.03,4.718 -33.649,6.807 -19.336,4.2 -30.119,20.65 -36.373,5.016 -6.296,-15.74 7.719,-18.204 7.719,-35.156 0,-16.955 -9.142,-16.955 -9.142,-33.91 0,-16.954 10.892,-16.917 10.992,-33.871 0.109,-18.522 -13.936,-18.646 -13.726,-37.167 0.209,-18.521 11.035,-18.399 11.245,-36.921 0.209,-18.522 -9.928,-18.636 -9.719,-37.158 0.21,-18.522 3.379,-18.486 3.588,-37.008 0.21,-18.519 10.296,-18.405 10.505,-36.924 0.21,-18.522 0.179,-18.522 0.388,-37.044 0.21,-18.522 -2.086,-18.548 -1.877,-37.07 0.21,-18.523 -0.649,-18.533 -0.439,-37.055 0.209,-18.523 -7.239,-18.607 -7.029,-37.129 0.209,-18.525 -1.676,-18.546 -1.467,-37.071 0.209,-18.525 -8.263,-25.724 4.776,-38.883 12.773,-12.89 20.069,-2.706 38.215,-2.706 18.145,0 18.145,1.719 36.29,1.719 18.144,0 18.144,6.429 36.289,6.429 18.144,0 18.144,-3.613 36.289,-3.613 18.144,0 18.144,-5.216 36.289,-5.216 18.146,0 18.146,10.302 36.292,10.302 18.147,0 18.147,-8.991 36.295,-8.991 18.145,0 18.145,-1.611 36.291,-1.611 18.147,0 18.147,10.631 36.294,10.631 18.146,0 18.146,-6.054 36.292,-6.054 18.146,0 18.146,-5.529 36.293,-5.529 18.147,0 18.147,0.166 36.294,0.166 18.147,0 18.147,10.589 36.295,10.589 18.148,0 18.148,3.027 36.296,3.027 18.146,0 18.146,-1.034 36.291,-1.034 18.146,0 18.146,-2.98 36.292,-2.98 18.148,0 18.148,-5.395 36.296,-5.395 18.148,0 18.148,3.538 36.296,3.538 18.149,0 18.149,-8.936 36.299,-8.936 18.148,0 18.148,3.513 36.297,3.513 18.151,0 18.151,3.099 36.302,3.099 18.151,0 27.889,-16.536 41.042,-4.027 12.662,12.041 2.111,22.372 2.333,39.845 0.223,17.473 -3.537,17.521 -3.314,34.995 0.222,17.474 -1.908,17.501 -1.686,34.975 0.223,17.471 -0.799,17.484 -0.577,34.955 0.222,17.472 4.325,17.42 4.548,34.892 0.222,17.473 -4.867,17.538 -4.645,35.012 0.222,17.474 -1.533,17.497 -1.311,34.971 0.223,17.475 9.995,17.35 10.218,34.825 0.222,17.475 -12.153,17.632 -11.93,35.107 0.222,17.476 4.294,17.192 9.194,33.969 C 4.927,-20.237 14.261,-10.105 0,0" />
    </g>
  </g>
</svg>
