<?xml version="1.0" encoding="UTF-8" standalone="no"?>
<svg
   xmlns:dc="http://purl.org/dc/elements/1.1/"
   xmlns:cc="http://creativecommons.org/ns#"
   xmlns:rdf="http://www.w3.org/1999/02/22-rdf-syntax-ns#"
   xmlns:svg="http://www.w3.org/2000/svg"
   xmlns="http://www.w3.org/2000/svg"
   id="SVGRoot"
   version="1.1"
   viewBox="0 0 20 20"
   height="20px"
   width="20px">
  <defs
     id="defs898" />
  <metadata
     id="metadata901">
    <rdf:RDF>
      <cc:Work
         rdf:about="">
        <dc:format>image/svg+xml</dc:format>
        <dc:type
           rdf:resource="http://purl.org/dc/dcmitype/StillImage" />
        <dc:title></dc:title>
      </cc:Work>
    </rdf:RDF>
  </metadata>
  <g
     id="layer1">
    <g
       transform="matrix(0.05191793,0,0,0.05191793,-3.2746875,-3.272689)"
       id="g1518">
      <path
         d="m 256.8,160 c -25.7,0 -49.8,10 -67.9,28.1 -18.1,18.1 -28.1,42.2 -28.1,67.9 0,25.7 10,49.7 28.1,67.9 18.1,18.1 42.3,28.1 67.9,28.1 25.7,0 49.8,-10 67.9,-28.1 18.1,-18.1 28.1,-42.2 28.1,-67.9 0,-25.7 -10,-49.7 -28.1,-67.9 C 306.6,170 282.5,160 256.8,160 Z m 0,176 c -44.3,0 -80,-35.9 -80,-80 0,-44.1 35.7,-80 80,-80 44.3,0 80,35.9 80,80 0,44.1 -35.7,80 -80,80 z"
         id="path1514" />
      <path
         d="m 424.5,216 h -15.2 c -12.4,0 -22.8,-10.4 -22.8,-23.2 0,-6.4 2.7,-12.1 7.5,-16.4 l 9.8,-9.6 c 9.7,-9.6 9.7,-25.2 0,-34.9 l -22.3,-22.1 c -4.4,-4.4 -10.9,-7 -17.5,-7 -6.6,0 -13,2.6 -17.5,7 l -9.4,9.4 c -4.5,5 -10.7,7.7 -17.2,7.7 -12.8,0 -23.7,-10.4 -23.7,-22.7 V 89.1 C 296.2,75.6 285.7,64 272.2,64 H 241.8 C 228,64 217,75.5 217,89.1 v 15.2 c 0,12.3 -10.6,22.7 -23.4,22.7 -6.4,0 -12.2,-2.7 -16.6,-7.4 l -9.7,-9.6 c -4.4,-4.5 -10.9,-7 -17.5,-7 -6.6,0 -13,2.6 -17.5,7 L 110,132 c -9.6,9.6 -9.6,25.3 0,34.8 l 9.4,9.4 c 5,4.5 7.8,10.2 7.8,16.7 0,12.8 -10.4,23.2 -22.8,23.2 H 89.2 C 75.5,216 64,227.2 64,240.8 v 15.2 15.2 c 0,13.5 11.5,24.8 25.2,24.8 h 15.2 c 12.4,0 22.8,10.4 22.8,23.2 0,6.4 -2.8,12.3 -7.8,16.8 l -9.4,9.2 c -9.6,9.6 -9.6,25.2 0,34.8 l 22.3,22.2 c 4.4,4.5 10.9,7 17.5,7 6.6,0 13,-2.6 17.5,-7 l 9.7,-9.6 c 4.2,-4.7 10.1,-7.4 16.5,-7.4 12.8,0 23.4,10.4 23.4,22.7 v 15.2 c 0,13.5 11,25.1 24.7,25.1 H 272 c 13.6,0 24.9,-11.5 24.9,-25.1 v -15.2 c 0,-12.3 10.5,-22.7 23.3,-22.7 6.4,0 12.3,2.8 16.9,7.7 l 9.4,9.4 c 4.5,4.4 10.9,7 17.5,7 6.6,0 13,-2.6 17.5,-7 l 22.3,-22.2 c 9.6,-9.6 9.6,-25.3 0,-34.9 l -9.8,-9.6 c -4.8,-4.3 -7.5,-10.4 -7.5,-16.7 0,-12.8 10.4,-23.6 22.8,-23.6 h 15.2 c 13.6,0 23.3,-10.3 23.3,-23.9 V 256 240.8 c 0,-13.6 -9.7,-24.8 -23.3,-24.8 z m 7.5,40 v 15.1 c 0,4.2 -2.3,7.9 -7.3,7.9 h -15.2 c -10.3,0 -20.1,4.4 -27.5,12 -7.3,7.5 -11.3,17.4 -11.3,27.8 0,10.8 4.4,20.8 12.5,28.2 l 9.5,9.4 c 3.3,3.4 3.3,9 0,12.3 l -22.3,22.2 c -1.6,1.5 -3.9,2.4 -6.3,2.4 -2.4,0 -4.8,-0.9 -6.3,-2.4 l -9.1,-9.1 c -7.7,-8.1 -17.8,-12.6 -28.5,-12.6 -10.4,0 -20,4 -27.5,11.2 -7.6,7.4 -11.6,17.1 -11.6,27.5 v 15.2 c 0,4.9 -4.3,9.1 -8.9,9.1 h -30.4 c -4.6,0 -8.7,-4.2 -8.7,-9.1 v -15.2 c 0,-10.3 -4.1,-20.1 -11.7,-27.5 -7.5,-7.2 -17.3,-11.2 -27.6,-11.2 -10.6,0 -20.8,4.5 -28.1,12.4 l -9.3,9.3 c -1.6,1.5 -3.9,2.4 -6.3,2.4 -2.4,0 -4.8,-0.8 -6.1,-2.2 l -0.1,-0.1 -0.1,-0.1 -22.3,-22.2 c -3.3,-3.3 -3.3,-8.8 0,-12.2 l 9.1,-9 c 8.2,-7.6 12.7,-17.7 12.7,-28.5 0,-10.4 -4,-19.9 -11.3,-27.4 -7.4,-7.6 -17.2,-11.5 -27.5,-11.5 H 89.2 c -5,0 -9.2,-4.3 -9.2,-8.8 V 256 240.8 c 0,-4.5 4.2,-8.8 9.2,-8.8 h 15.2 c 10.3,0 20.1,-3.9 27.5,-11.5 7.3,-7.5 11.3,-17.2 11.3,-27.5 0,-10.8 -4.5,-20.9 -12.7,-28.4 l -9.2,-9.1 c -2.2,-2.2 -2.5,-4.7 -2.5,-6.1 0,-1.3 0.3,-3.9 2.5,-6.1 l 22.2,-22.1 c 1.6,-1.5 3.9,-2.4 6.3,-2.4 2.4,0 4.8,0.8 6.1,2.2 l 0.1,0.1 0.1,0.1 9.4,9.4 c 7.4,8 17.4,12.4 28.1,12.4 10.4,0 20.1,-4 27.6,-11.2 7.6,-7.4 11.8,-17.1 11.8,-27.5 V 89.1 c 0,-4.9 4,-9.1 8.5,-9.1 H 272 c 4.5,0 8,4.2 8,9.1 v 15.2 c 0,10.3 4.4,20.1 12,27.5 7.5,7.2 17.4,11.2 27.8,11.2 10.8,0 21,-4.5 28.6,-12.6 l 9.1,-9.1 c 1.6,-1.5 3.9,-2.4 6.3,-2.4 2.4,0 4.8,0.9 6.3,2.3 l 22.3,22.1 c 1.6,1.6 2.6,3.8 2.6,6.1 0,2.3 -0.9,4.5 -2.5,6.1 l -9.5,9.4 c -8,7.4 -12.5,17.4 -12.5,28.2 0,10.4 4,19.9 11.3,27.4 7.4,7.6 17.2,11.5 27.5,11.5 h 15.2 c 5.4,0 7.4,5 7.5,9 z"
         id="path1516" />
    </g>
  </g>
</svg>
